:FULLY-SPECIFIED
:FORCE-ALL-JOINTS-BE-3DOF
:DEGREES
1
root 6.24314 16.836 -28.1378 9.0217 -2.52979 -3.05774
lfemur -20.3712 2.30257 -19.9954
ltibia 35.927 0 0
lfoot -38.654 3.93715 0
ltoes 38.9541 0 0
rfemur -19.4747 0.22019 19.5256
rtibia 36.0342 0 0
rfoot -30.3779 -10.4967 0
rtoes 21.4483 0 0
lowerback -2.05144 3.66971 -5.03766
upperback -2.66728 5.00355 3.49279
thorax -2.36397 2.67023 6.42441
lowerneck -9.84699 -2.36864 1.94815
upperneck -1.37933 -3.32542 -1.65382
head 1.16433 -1.69823 -0.975663
lclavicle -1.65488e-14 -3.69739e-14 0
lhumerus -41.7253 -10.8128 99.8312
lradius 34.5094 0 0
lwrist 2.17521 0 0
lhand -10.5949 9.65639 0
lfingers 7.12502 0 0
lthumb 15.4107 39.062 0
rclavicle -1.65488e-14 -3.69739e-14 0
rhumerus -43.273 -4.86223 -84.2703
rradius 40.4763 0 0
rwrist 9.89469 0 0
rhand -23.7965 -22.476 0
rfingers 7.12502 0 0
rthumb 2.67393 -52.439 0
2
root 6.24065 16.8384 -28.1318 9.0604 -2.6607 -3.01931
lfemur -20.324 2.33969 -20.0412
ltibia 35.8397 -0 0
lfoot -38.6434 4.02697 0.000117781
ltoes 38.935 -0 0
rfemur -19.4104 0.299886 19.4847
rtibia 35.8583 -0 0
rfoot -30.4246 -10.4924 0.00329443
rtoes 21.7312 -0 0
lowerback -2.20048 3.71207 -5.08254
upperback -2.64488 5.06518 3.45916
thorax -2.26416 2.69798 6.42641
lowerneck -9.86465 -2.37888 1.97774
upperneck -1.38456 -3.34287 -1.63553
head 1.16516 -1.70663 -0.975686
lclavicle 2.23985e-15 -2.27796e-14 -9.28876e-30
lhumerus -41.7456 -10.8117 99.7635
lradius 34.5294 -0 0
lwrist 2.24719 0 0
lhand -10.6744 8.84162 0.00303584
lfingers 7.12502 -0 0
lthumb 15.3341 38.253 0.00290559
rclavicle 2.23985e-15 -2.27796e-14 -9.28876e-30
rhumerus -43.2728 -4.8835 -84.3197
rradius 40.468 -0 0
rwrist 9.9204 0 0
rhand -23.656 -22.5825 0.00387077
rfingers 7.12502 -0 0
rthumb 2.80967 -52.5448 0.00370902
3
root 6.23434 16.842 -28.1245 9.11208 -2.77159 -2.975
lfemur -20.2714 2.36046 -20.0763
ltibia 35.7196 -0 0
lfoot -38.594 4.11965 0.000305361
ltoes 38.8926 -0 0
rfemur -19.2879 0.499186 19.4476
rtibia 35.5743 -0 0
rfoot -30.4259 -10.6332 0.00464339
rtoes 21.9052 -0 0
lowerback -2.3987 3.7311 -5.06245
upperback -2.61108 5.09637 3.39159
thorax -2.11269 2.70623 6.36024
lowerneck -9.87928 -2.37758 2.01402
upperneck -1.41473 -3.34629 -1.59153
head 1.15797 -1.70758 -0.967873
lclavicle 1.84339e-14 -9.48948e-15 -1.31491e-29
lhumerus -41.7702 -10.8368 99.6492
lradius 34.5853 -0 0
lwrist 2.35528 0 0
lhand -10.7701 7.93666 0.00554637
lfingers 7.12502 -0 0
lthumb 15.242 37.355 0.00530581
rclavicle 1.84339e-14 -9.48948e-15 -1.31491e-29
rhumerus -43.2227 -4.90737 -84.4353
rradius 40.4449 -0 0
rwrist 9.9594 0 0
rhand -23.6116 -22.6043 0.00584237
rfingers 7.12502 -0 0
rthumb 2.85251 -52.5667 0.00559874
4
root 6.22528 16.8464 -28.1164 9.17199 -2.86246 -2.92778
lfemur -20.2163 2.36753 -20.1017
ltibia 35.5784 -0 0
lfoot -38.5159 4.21102 0.000452448
ltoes 38.8334 -0 0
rfemur -19.1242 0.785168 19.4156
rtibia 35.216 -0 0
rfoot -30.3914 -10.8829 0.00452292
rtoes 21.9865 -0 0
lowerback -2.62804 3.73128 -4.99184
upperback -2.56957 5.1024 3.29985
thorax -1.92629 2.6991 6.24283
lowerneck -9.89094 -2.36724 2.05417
upperneck -1.46339 -3.33847 -1.52895
head 1.14473 -1.70261 -0.954183
lclavicle 3.19595e-14 2.57668e-15 -1.30045e-29
lhumerus -41.7973 -10.8818 99.5026
lradius 34.6675 -0 0
lwrist 2.48771 0 0
lhand -10.8748 6.9954 0.00684033
lfingers 7.12502 -0 0
lthumb 15.1411 36.4213 0.00654141
rclavicle 3.19595e-14 2.57668e-15 -1.30045e-29
rhumerus -43.1352 -4.93219 -84.5987
rradius 40.4108 -0 0
rwrist 10.0074 0 0
rhand -23.6448 -22.5586 0.00611216
rfingers 7.12502 -0 0
rthumb 2.82047 -52.5215 0.0058578
5
root 6.2145 16.8512 -28.108 9.23542 -2.93328 -2.88059
lfemur -20.1621 2.36356 -20.1182
ltibia 35.4276 -0 0
lfoot -38.4193 4.29691 0.000491715
ltoes 38.7641 -0 0
rfemur -18.9364 1.12488 19.3898
rtibia 34.8172 -0 0
rfoot -30.3305 -11.2055 0.00353363
rtoes 21.9915 -0 0
lowerback -2.87051 3.71706 -4.88517
upperback -2.52402 5.08855 3.1937
thorax -1.7217 2.68064 6.09108
lowerneck -9.89971 -2.35034 2.09537
upperneck -1.5241 -3.32222 -1.45494
head 1.12741 -1.69326 -0.936575
lclavicle 4.27425e-14 1.30989e-14 -1.03058e-29
lhumerus -41.8248 -10.94 99.3379
lradius 34.7661 -0 0
lwrist 2.63265 0 0
lhand -10.9816 6.07172 0.00661994
lfingers 7.12502 -0 0
lthumb 15.0382 35.5054 0.00632909
rclavicle 4.27425e-14 1.30989e-14 -1.03058e-29
rhumerus -43.0228 -4.95629 -84.7915
rradius 40.3699 -0 0
rwrist 10.06 0 0
rhand -23.7369 -22.4624 0.00515296
rfingers 7.12502 -0 0
rthumb 2.73155 -52.4262 0.00493894
6
root 6.20306 16.856 -28.1 9.29763 -2.98402 -2.83637
lfemur -20.112 2.35121 -20.1269
ltibia 35.2786 -0 0
lfoot -38.3141 4.37315 0.000404403
ltoes 38.6911 -0 0
rfemur -18.7415 1.48533 19.3709
rtibia 34.4117 -0 0
rfoot -30.2528 -11.5649 0.00222697
rtoes 21.9367 -0 0
lowerback -3.10811 3.69274 -4.75691
upperback -2.47814 5.06005 3.08292
thorax -1.51562 2.65475 5.92193
lowerneck -9.90567 -2.32937 2.13483
upperneck -1.59039 -3.30035 -1.37665
head 1.108 -1.68107 -0.917011
lclavicle 5.07089e-14 2.17574e-14 -6.44675e-30
lhumerus -41.8509 -11.005 99.1694
lradius 34.8713 -0 0
lwrist 2.77832 0 0
lhand -11.0832 5.21951 0.00501299
lfingers 7.12502 -0 0
lthumb 14.9404 34.6605 0.00479186
rclavicle 5.07089e-14 2.17574e-14 -6.44675e-30
rhumerus -42.8978 -4.97812 -84.9951
rradius 40.3262 -0 0
rwrist 10.113 0 0
rhand -23.8692 -22.3327 0.00351542
rfingers 7.12502 -0 0
rthumb 2.60374 -52.2976 0.00336969
7
root 6.19201 16.8605 -28.0929 9.35392 -3.01464 -2.79805
lfemur -20.0691 2.33312 -20.1285
ltibia 35.1431 -0 0
lfoot -38.2107 4.43557 0.000218572
ltoes 38.6211 -0 0
rfemur -18.5565 1.83353 19.3593
rtibia 34.0333 -0 0
rfoot -30.168 -11.9249 0.000991601
rtoes 21.8383 -0 0
lowerback -3.32286 3.66242 -4.62159
upperback -2.4356 5.02214 2.97727
thorax -1.3248 2.62511 5.75236
lowerneck -9.90889 -2.30683 2.16974
upperneck -1.65584 -3.27572 -1.3012
head 1.08846 -1.66759 -0.897448
lclavicle 5.57847e-14 2.8232e-14 -2.67507e-30
lhumerus -41.8738 -11.0702 99.0113
lradius 34.9735 -0 0
lwrist 2.91292 0 0
lhand -11.1725 4.49265 0.00253758
lfingers 7.12502 -0 0
lthumb 14.8543 33.9401 0.00242532
rclavicle 5.57847e-14 2.8232e-14 -2.67507e-30
rhumerus -42.7728 -4.99628 -85.1912
rradius 40.2838 -0 0
rwrist 10.162 0 0
rhand -24.0232 -22.1866 0.00168592
rfingers 7.12502 -0 0
rthumb 2.45504 -52.1528 0.00161616
8
root 6.18238 16.8642 -28.0873 9.39955 -3.02509 -2.76853
lfemur -20.0366 2.31197 -20.124
ltibia 35.0326 0 0
lfoot -38.1189 4.48001 0
ltoes 38.5606 0 0
rfemur -18.3983 2.13645 19.3549
rtibia 33.7157 0 0
rfoot -30.0855 -12.2495 0
rtoes 21.7128 0 0
lowerback -3.49672 3.63 -4.49379
upperback -2.40015 4.98 2.88656
thorax -1.16602 2.59519 5.59938
lowerneck -9.90947 -2.28521 2.19728
upperneck -1.71403 -3.2512 -1.23572
head 1.07077 -1.65434 -0.879843
lclavicle 5.7896e-14 3.22031e-14 0
lhumerus -41.8915 -11.129 98.8779
lradius 35.0629 0 0
lwrist 3.02465 0 0
lhand -11.2425 3.94502 0
lfingers 7.12502 0 0
lthumb 14.7869 33.3975 0
rclavicle 5.7896e-14 3.22031e-14 0
rhumerus -42.6604 -5.0095 -85.3612
rradius 40.2467 0 0
rwrist 10.2028 0 0
rhand -24.1801 -22.0412 0
rfingers 7.12502 0 0
rthumb 2.30346 -52.0086 0
9
root 6.1738 16.8672 -28.0832 9.43474 -3.00687 -2.74972
lfemur -20.0161 2.28342 -20.1089
ltibia 34.947 -0 0
lfoot -38.0355 4.50424 -0.000155993
ltoes 38.5091 -0 0
rfemur -18.2595 2.40385 19.3608
rtibia 33.4481 -0 0
rfoot -30.0011 -12.5545 -0.000582688
rtoes 21.5361 -0 0
lowerback -3.62991 3.59098 -4.36366
upperback -2.37097 4.92753 2.80891
thorax -1.03636 2.56146 5.4556
lowerneck -9.9067 -2.26308 2.21732
upperneck -1.76934 -3.22491 -1.18017
head 1.05345 -1.6404 -0.864005
lclavicle 5.45714e-14 3.24627e-14 3.09365e-31
lhumerus -41.9064 -11.1881 98.7672
lradius 35.1428 -0 0
lwrist 3.11537 0 0
lhand -11.2949 3.58508 -0.00179755
lfingers 7.12502 -0 0
lthumb 14.7364 33.0413 -0.00171813
rclavicle 5.45714e-14 3.24627e-14 3.09365e-31
rhumerus -42.5518 -5.01683 -85.5114
rradius 40.2131 -0 0
rwrist 10.2353 0 0
rhand -24.3646 -21.8733 -0.00170337
rfingers 7.12502 -0 0
rthumb 2.12522 -51.8421 -0.00163223
10
root 6.1652 16.8699 -28.0801 9.46377 -2.9572 -2.73962
lfemur -20.0053 2.24365 -20.0809
ltibia 34.8759 -0 0
lfoot -37.9504 4.51125 -0.000216807
ltoes 38.4607 -0 0
rfemur -18.1225 2.66827 19.3779
rtibia 33.1968 -0 0
rfoot -29.9049 -12.8774 -0.000689164
rtoes 21.2856 -0 0
lowerback -3.73858 3.54036 -4.21495
upperback -2.34444 4.85806 2.73498
thorax -0.919891 2.51958 5.3034
lowerneck -9.90026 -2.23775 2.23232
upperneck -1.82895 -3.19365 -1.12823
head 1.03424 -1.62408 -0.848132
lclavicle 4.50528e-14 2.88927e-14 -1.49836e-30
lhumerus -41.9206 -11.2556 98.6659
lradius 35.2231 -0 0
lwrist 3.19619 0 0
lhand -11.3366 3.36773 -0.00268085
lfingers 7.12502 -0 0
lthumb 14.6962 32.8269 -0.00256262
rclavicle 4.50528e-14 2.88927e-14 -1.49836e-30
rhumerus -42.4332 -5.01903 -85.6604
rradius 40.1789 -0 0
rwrist 10.2634 0 0
rhand -24.6016 -21.66 -0.0032803
rfingers 7.12502 -0 0
rthumb 1.8964 -51.6305 -0.00314249
